<svg width="41" height="41" viewBox="0 0 41 41" fill="none" xmlns="http://www.w3.org/2000/svg">
<g clip-path="url(#clip0_27_30)">
<path d="M20.4999 25.625C23.3304 25.625 25.6249 23.3304 25.6249 20.5C25.6249 17.6695 23.3304 15.375 20.4999 15.375C17.6695 15.375 15.3749 17.6695 15.3749 20.5C15.3749 23.3304 17.6695 25.625 20.4999 25.625Z" stroke="#F3F3F3" stroke-width="4" stroke-linecap="round" stroke-linejoin="round"/>
<path d="M33.1416 25.625C32.9142 26.1402 32.8463 26.7118 32.9468 27.266C33.0473 27.8202 33.3115 28.3315 33.7053 28.7341L33.8078 28.8366C34.1255 29.154 34.3775 29.5308 34.5495 29.9456C34.7214 30.3603 34.8099 30.8049 34.8099 31.2539C34.8099 31.7029 34.7214 32.1475 34.5495 32.5623C34.3775 32.9771 34.1255 33.3539 33.8078 33.6712C33.4905 33.9889 33.1137 34.2409 32.6989 34.4129C32.2841 34.5848 31.8395 34.6733 31.3905 34.6733C30.9415 34.6733 30.4969 34.5848 30.0822 34.4129C29.6674 34.2409 29.2906 33.9889 28.9733 33.6712L28.8708 33.5687C28.4681 33.1749 27.9568 32.9107 27.4026 32.8102C26.8484 32.7097 26.2768 32.7776 25.7616 33.005C25.2563 33.2215 24.8254 33.5811 24.5219 34.0394C24.2183 34.4978 24.0554 35.0348 24.0533 35.5846V35.875C24.0533 36.7811 23.6933 37.6502 23.0525 38.2909C22.4118 38.9317 21.5427 39.2916 20.6366 39.2916C19.7304 39.2916 18.8614 38.9317 18.2206 38.2909C17.5799 37.6502 17.2199 36.7811 17.2199 35.875V35.7212C17.2067 35.1558 17.0237 34.6074 16.6946 34.1473C16.3656 33.6873 15.9058 33.3369 15.3749 33.1416C14.8597 32.9142 14.2881 32.8464 13.7339 32.9469C13.1797 33.0474 12.6684 33.3116 12.2658 33.7054L12.1633 33.8079C11.8459 34.1256 11.4691 34.3776 11.0543 34.5495C10.6396 34.7215 10.195 34.81 9.74596 34.81C9.29696 34.81 8.85236 34.7215 8.43758 34.5495C8.0228 34.3776 7.64599 34.1256 7.32867 33.8079C7.011 33.4906 6.75899 33.1138 6.58705 32.699C6.41511 32.2842 6.32661 31.8396 6.32661 31.3906C6.32661 30.9416 6.41511 30.497 6.58705 30.0822C6.75899 29.6675 7.011 29.2906 7.32867 28.9733L7.43117 28.8708C7.825 28.4682 8.08919 27.9568 8.18968 27.4027C8.29016 26.8485 8.22232 26.2769 7.99492 25.7616C7.77837 25.2564 7.41879 24.8255 6.96046 24.5219C6.50213 24.2184 5.96505 24.0555 5.41534 24.0533H5.12492C4.21876 24.0533 3.34972 23.6933 2.70897 23.0526C2.06822 22.4118 1.70825 21.5428 1.70825 20.6366C1.70825 19.7305 2.06822 18.8614 2.70897 18.2207C3.34972 17.58 4.21876 17.22 5.12492 17.22H5.27867C5.84412 17.2068 6.39251 17.0237 6.85256 16.6947C7.3126 16.3656 7.66302 15.9058 7.85825 15.375C8.08566 14.8597 8.15349 14.2882 8.05301 13.734C7.95253 13.1798 7.68834 12.6684 7.2945 12.2658L7.192 12.1633C6.87433 11.846 6.62232 11.4692 6.45038 11.0544C6.27844 10.6396 6.18994 10.195 6.18994 9.74602C6.18994 9.29702 6.27844 8.85242 6.45038 8.43764C6.62232 8.02287 6.87433 7.64605 7.192 7.32873C7.50932 7.01106 7.88614 6.75905 8.30091 6.58711C8.71569 6.41517 9.16029 6.32667 9.60929 6.32667C10.0583 6.32667 10.5029 6.41517 10.9177 6.58711C11.3325 6.75905 11.7093 7.01106 12.0266 7.32873L12.1291 7.43123C12.5317 7.82506 13.0431 8.08926 13.5972 8.18974C14.1514 8.29022 14.723 8.22239 15.2383 7.99498H15.3749C15.8802 7.77843 16.3111 7.41885 16.6146 6.96052C16.9182 6.5022 17.0811 5.96512 17.0833 5.4154V5.12498C17.0833 4.21882 17.4432 3.34978 18.084 2.70903C18.7247 2.06828 19.5938 1.70831 20.4999 1.70831C21.4061 1.70831 22.2751 2.06828 22.9159 2.70903C23.5566 3.34978 23.9166 4.21882 23.9166 5.12498V5.27873C23.9188 5.82845 24.0817 6.36553 24.3852 6.82386C24.6887 7.28219 25.1196 7.64176 25.6249 7.85831C26.1402 8.08572 26.7118 8.15355 27.2659 8.05307C27.8201 7.95259 28.3315 7.6884 28.7341 7.29456L28.8366 7.19206C29.1539 6.87439 29.5307 6.62238 29.9455 6.45044C30.3603 6.2785 30.8049 6.19 31.2539 6.19C31.7029 6.19 32.1475 6.2785 32.5623 6.45044C32.977 6.62238 33.3539 6.87439 33.6712 7.19206C33.9888 7.50938 34.2409 7.8862 34.4128 8.30098C34.5847 8.71575 34.6732 9.16035 34.6732 9.60936C34.6732 10.0584 34.5847 10.503 34.4128 10.9177C34.2409 11.3325 33.9888 11.7093 33.6712 12.0266L33.5687 12.1291C33.1748 12.5318 32.9106 13.0431 32.8102 13.5973C32.7097 14.1515 32.7775 14.7231 33.0049 15.2383V15.375C33.2215 15.8803 33.581 16.3112 34.0394 16.6147C34.4977 16.9182 35.0348 17.0811 35.5845 17.0833H35.8749C36.7811 17.0833 37.6501 17.4433 38.2909 18.084C38.9316 18.7248 39.2916 19.5938 39.2916 20.5C39.2916 21.4061 38.9316 22.2752 38.2909 22.9159C37.6501 23.5567 36.7811 23.9166 35.8749 23.9166H35.7212C35.1715 23.9188 34.6344 24.0817 34.176 24.3853C33.7177 24.6888 33.3581 25.1197 33.1416 25.625Z" stroke="#F3F3F3" stroke-width="4" stroke-linecap="round" stroke-linejoin="round"/>
</g>
<defs>
<clipPath id="clip0_27_30">
<rect width="41" height="41" fill="white"/>
</clipPath>
</defs>
</svg>
